<svg width="54" height="40" viewBox="0 0 54 40" fill="none" xmlns="http://www.w3.org/2000/svg">
<path d="M51.3 0.499939H2.7C1.20909 0.499939 0 1.95533 0 3.74994V36.2499C0 38.0445 1.20909 39.4999 2.7 39.4999H51.3C52.7909 39.4999 54 38.0445 54 36.2499V3.74994C54 1.95533 52.7909 0.499939 51.3 0.499939ZM4.05 34.6249V28.1249C7.03266 28.1249 9.45 31.0347 9.45 34.6249H4.05ZM4.05 11.8749V5.37494H9.45C9.45 8.96517 7.03266 11.8749 4.05 11.8749ZM27 29.7499C23.2715 29.7499 20.25 25.3838 20.25 19.9999C20.25 14.6151 23.2723 10.2499 27 10.2499C30.7277 10.2499 33.75 14.6151 33.75 19.9999C33.75 25.3858 30.7268 29.7499 27 29.7499ZM49.95 34.6249H44.55C44.55 31.0347 46.9673 28.1249 49.95 28.1249V34.6249ZM49.95 11.8749C46.9673 11.8749 44.55 8.96517 44.55 5.37494H49.95V11.8749Z" fill="#517FD9"/>
</svg>
