<svg width="52" height="54" viewBox="0 0 52 54" fill="none" xmlns="http://www.w3.org/2000/svg">
<path d="M0 42.7465V47.25C0 50.973 8.73438 54 19.5 54C30.2656 54 39 50.973 39 47.25V42.7465C34.8055 45.8156 27.1375 47.25 19.5 47.25C11.8625 47.25 4.19453 45.8156 0 42.7465ZM32.5 13.5C43.2656 13.5 52 10.473 52 6.75C52 3.02695 43.2656 0 32.5 0C21.7344 0 13 3.02695 13 6.75C13 10.473 21.7344 13.5 32.5 13.5ZM0 31.6828V37.125C0 40.848 8.73438 43.875 19.5 43.875C30.2656 43.875 39 40.848 39 37.125V31.6828C34.8055 35.2687 27.1273 37.125 19.5 37.125C11.8727 37.125 4.19453 35.2687 0 31.6828ZM42.25 32.843C48.0695 31.6723 52 29.4996 52 27V22.4965C49.6437 24.2262 46.1805 25.4074 42.25 26.1352V32.843ZM19.5 16.875C8.73438 16.875 0 20.6508 0 25.3125C0 29.9742 8.73438 33.75 19.5 33.75C30.2656 33.75 39 29.9742 39 25.3125C39 20.6508 30.2656 16.875 19.5 16.875ZM41.7727 22.8129C47.8664 21.6738 52 19.4379 52 16.875V12.3715C48.3945 15.0188 42.1992 16.4426 35.6789 16.7801C38.675 18.2883 40.8789 20.3133 41.7727 22.8129Z" fill="#517FD9"/>
</svg>
