<svg width="49" height="49" viewBox="0 0 49 49" fill="none" xmlns="http://www.w3.org/2000/svg">
<path d="M47.6909 38.0885L36.6409 28.0416C35.5563 27.0549 33.8818 27.1065 32.8598 28.1585L26.3548 34.8483C24.7891 34.5493 21.6413 33.568 18.401 30.3359C15.1608 27.0929 14.1795 23.937 13.8886 22.3821L20.573 15.8744C21.6277 14.8524 21.6766 13.1806 20.6898 12.0933L10.6457 1.04602C9.65891 -0.0440237 7.98171 -0.14732 6.86448 0.809528L0.965733 5.86832C0.495464 6.34131 0.215477 6.96652 0.17742 7.63251C0.136645 8.31209 -0.640793 24.41 11.8417 36.8979C22.7313 47.7848 36.3718 48.5812 40.1285 48.5812C40.6776 48.5812 41.0147 48.5649 41.1044 48.5595C41.7704 48.5215 42.3956 48.2415 42.8659 47.7685L47.922 41.867C48.8842 40.7498 48.7782 39.0753 47.6909 38.0885Z" fill="#517FD9"/>
</svg>
