<svg width="40" height="40" viewBox="0 0 40 40" fill="none" xmlns="http://www.w3.org/2000/svg">
<path d="M26.6746 9.02477C26.9332 9.03169 27.2015 9.03887 27.4853 9.04458L39 24.0037L38.731 24.0916L38.7236 24.094L38.7163 24.0965L34.7118 25.4748L34.6434 25.4983L34.5791 25.5315L29.2263 28.2908L28.8283 28.496L28.7163 28.9296C28.5141 29.7122 28.2408 30.3398 27.7546 30.8344C27.7541 30.8349 27.7536 30.8354 27.7531 30.8359L27.7352 30.854L27.6819 30.8905L27.6748 30.8954L27.6678 30.9003L27.6767 30.9128L27.6766 30.9129L27.6677 30.9004L27.6676 30.9005L27.6668 30.901L27.6639 30.9031L27.6519 30.9116L27.605 30.9449L27.4243 31.073C27.2675 31.184 27.0412 31.3442 26.763 31.5403C26.2067 31.9327 25.4437 32.4689 24.6169 33.0445C22.9532 34.2026 21.0619 35.4983 20.0615 36.1152L20.0603 36.116C19.2744 36.6021 18.2671 36.9282 17.1781 36.9903L17.1769 36.9904C16.0934 37.0536 15.0165 36.8169 14.2485 36.0415C14.2479 36.0409 14.2474 36.0404 14.2468 36.0398L14.2262 36.0187L5.10265 25.6281L4.97434 25.482L4.80062 25.3946L2.23865 24.1058L2.23358 24.1032L2 23.984V11.8924H2.39286C5.57373 11.8924 7.84322 11.2213 9.59238 10.533L9.59349 10.5325C10.0427 10.3551 10.4441 10.1686 10.8062 9.9952C10.8981 9.95118 10.9861 9.90872 11.0711 9.86767C11.3303 9.74257 11.5626 9.63049 11.7973 9.52701C12.3979 9.2622 12.9107 9.10268 13.5133 9.09014L13.514 9.09013C13.8053 9.08388 14.0807 9.07551 14.3443 9.0675C15.3407 9.03724 16.17 9.01204 17.0668 9.1252L17.0679 9.12534C17.8302 9.22069 18.7051 9.64354 19.7679 10.2818L20.3189 10.6126L20.8487 10.2489C21.5172 9.78991 22.2539 9.44626 23.0293 9.23091C23.7117 9.04417 24.3743 9.00614 25.1219 9.00063C25.6322 8.99689 26.132 9.01026 26.6746 9.02477ZM25.1563 10.6953L25.1486 9.8483C25.1482 9.8483 25.1477 9.84829 25.1472 9.8483C24.5048 9.85418 23.8697 9.88664 23.2378 10.062C23.2368 10.0623 23.2359 10.0626 23.2349 10.0628L25.1563 10.6953ZM16.9652 9.94377L16.956 9.94265L16.9468 9.94171C16.4408 9.89 15.9319 9.87364 15.4238 9.89275L13.5553 9.93681L13.5553 9.93674L13.5437 9.93715C13.3655 9.94343 13.198 10.0002 13.156 10.0145C13.1535 10.0153 13.1514 10.016 13.1498 10.0166C13.0706 10.0428 12.98 10.0767 12.8867 10.113C12.6983 10.1861 12.4485 10.2889 12.1582 10.409C12.1021 10.4323 12.0441 10.4563 11.9843 10.481C11.419 10.7152 10.6948 11.015 9.86292 11.341L9.86268 11.341C8.39405 11.9168 6.2866 12.4366 3.71896 12.6084L2.78571 12.6708V13.6062V22.8167V23.429L3.33105 23.7074L5.39804 24.7625L5.43568 24.8109L5.45469 24.8353L5.47517 24.8584L14.7906 35.4031L14.8074 35.4221L14.8252 35.4403L14.8684 35.4845L14.8993 35.516L14.9328 35.5447C15.4713 36.0059 16.3147 36.187 17.1615 36.1396L17.1639 36.1394C18.0917 36.0853 19.1012 35.7256 19.6773 35.3696L19.6815 35.367C19.7552 35.321 19.8728 35.2424 19.9765 35.1732L19.9996 35.1578C20.1214 35.0765 20.2288 35.0049 20.2934 34.9644L21.2019 34.3941L20.5695 33.5278L19.367 31.8806L20.0265 31.3881L21.3018 33.148L21.8707 33.933L22.673 33.3887C23.0736 33.1169 23.3584 32.9132 23.6311 32.7165C23.6615 32.6946 23.6916 32.6729 23.7217 32.6512C23.9608 32.4787 24.1962 32.3088 24.5094 32.0921L25.3527 31.5086L24.748 30.6802L23.5454 29.0328L24.2018 28.5423L25.4357 30.2542L26.038 31.0897L26.8262 30.4854C26.8416 30.4758 26.8613 30.4636 26.883 30.4503L26.9494 30.4097L26.9741 30.3946L26.9842 30.3884C26.9849 30.388 26.9935 30.3827 27.0026 30.3769L27.0706 30.3334L27.1309 30.2796C27.1987 30.2189 27.2604 30.1472 27.312 30.0652C27.3262 30.0428 27.3392 30.0201 27.3512 29.9974C28.4204 28.7027 28.4338 26.8021 27.251 25.5285L27.2302 25.4853L27.1602 25.3973L22.0233 18.9461L21.3836 18.1427L20.5975 18.8036L17.8995 21.0717L17.8623 21.103L17.8282 21.1378L17.8057 21.1608C16.0634 22.3561 14.1073 22.038 12.7542 21.3827C12.067 21.05 11.4934 20.6338 11.0892 20.2967C10.8886 20.1293 10.7334 19.9845 10.6309 19.8842C10.5797 19.8341 10.5419 19.7954 10.5183 19.7708C10.5065 19.7585 10.4983 19.7498 10.4938 19.745L10.4906 19.7415L10.4901 19.7409L10.49 19.7408L10.4899 19.7407L10.4852 19.7355L10.4788 19.7286L10.1608 19.3902L10.521 19.09L10.521 19.09L10.527 19.085L18.1446 12.6351L18.1835 12.6022L18.2188 12.5655L18.295 12.4864C18.3437 12.4389 18.3869 12.4005 18.4408 12.3534C18.4477 12.3474 18.4548 12.3412 18.4623 12.3347C18.5161 12.2878 18.5859 12.2271 18.6632 12.1542L19.8464 11.0396L18.3181 10.4861C18.2529 10.4625 18.1903 10.4291 18.0704 10.3651C18.0187 10.3375 17.9563 10.3042 17.8784 10.2635C17.6905 10.1654 17.3492 9.99021 16.9652 9.94377ZM25.5175 29.8349C25.5178 29.8359 25.5176 29.8353 25.5171 29.8338L25.5175 29.8349Z" fill="#3C64B1" stroke="#3C64B1" stroke-width="2"/>
</svg>
