<svg width="40" height="40" viewBox="0 0 40 40" fill="none" xmlns="http://www.w3.org/2000/svg">
<path d="M35.728 12.93C36.0095 11.9423 36.0705 10.9049 35.9067 9.89101C35.743 8.87715 35.3584 7.91166 34.7803 7.06283C34.2022 6.21399 33.4447 5.50254 32.5613 4.97881C31.6778 4.45508 30.6901 4.13186 29.668 4.032C29.2579 2.85523 28.4921 1.83506 27.4766 1.11269C26.4611 0.390327 25.2462 0.00148816 24 0C22.5192 0.00501565 21.0932 0.56113 20 1.56C18.9068 0.56113 17.4808 0.00501565 16 0C13.398 0 11.18 1.662 10.35 4.03C9.32607 4.12736 8.3361 4.44884 7.45033 4.97166C6.56456 5.49447 5.8047 6.2058 5.22464 7.05518C4.64458 7.90456 4.25853 8.87118 4.0939 9.88647C3.92926 10.9018 3.99007 11.9408 4.272 12.93C2.98807 13.6131 1.913 14.631 1.16087 15.8758C0.408736 17.1205 0.00759195 18.5457 0 20C0 22.15 0.856 24.172 2.344 25.664C2.11632 26.4218 2.00044 27.2087 2 28C2 31.914 4.824 35.18 8.612 35.868C9.1681 37.097 10.0661 38.1401 11.1988 38.8728C12.3314 39.6055 13.651 39.9968 15 40C16.958 40 18.728 39.186 20 37.882C20.6492 38.5517 21.4263 39.0843 22.2852 39.4481C23.1441 39.8119 24.0672 39.9996 25 40C26.3466 39.9975 27.664 39.6078 28.7953 38.8773C29.9265 38.1468 30.8237 37.1063 31.38 35.88C32.4959 35.6833 33.5574 35.2521 34.4944 34.6149C35.4314 33.9777 36.2225 33.149 36.8157 32.1835C37.4088 31.218 37.7904 30.1377 37.9352 29.0139C38.0801 27.8901 37.9849 26.7483 37.656 25.664C38.3996 24.9202 38.9894 24.0371 39.3916 23.0652C39.7937 22.0934 40.0005 21.0518 40 20C39.9924 18.5457 39.5913 17.1205 38.8391 15.8758C38.087 14.631 37.0119 13.6131 35.728 12.93ZM15 36C13.578 36 12.34 34.992 12.06 33.604L11.636 32H10C7.794 32 6 30.206 6 28C6 27.296 6.17 26.636 6.506 26.038L7.418 24.406L5.85 23.386C5.28357 23.0208 4.81754 22.5197 4.49441 21.9283C4.17128 21.3368 4.00131 20.6739 4 20C4 18.046 5.446 16.352 7.364 16.056L10.75 15.536L8.632 12.844C8.25482 12.3577 8.03608 11.7674 8.00536 11.1527C7.97465 10.5381 8.13344 9.92889 8.46027 9.40745C8.78709 8.88601 9.26618 8.47753 9.83273 8.23725C10.3993 7.99698 11.026 7.9365 11.628 8.064L14 8.414V6C14 5.46957 14.2107 4.96086 14.5858 4.58579C14.9609 4.21071 15.4696 4 16 4C16.5304 4 17.0391 4.21071 17.4142 4.58579C17.7893 4.96086 18 5.46957 18 6V33C18 34.654 16.654 36 15 36ZM34.15 23.384L32.582 24.404L33.494 26.036C33.83 26.636 34 27.296 34 28C34 30.206 32.206 32 29.9 32H28.264L27.94 33.604C27.8002 34.2805 27.4314 34.8882 26.8959 35.3246C26.3604 35.7611 25.6908 35.9996 25 36C23.346 36 22 34.654 22 33V6C22 4.896 22.896 4 24 4C25.104 4 26 4.896 26 6.1V8.514L28.372 8.064C28.974 7.9365 29.6007 7.99698 30.1673 8.23725C30.7338 8.47753 31.2129 8.88601 31.5397 9.40745C31.8666 9.92889 32.0254 10.5381 31.9946 11.1527C31.9639 11.7674 31.7452 12.3577 31.368 12.844L29.25 15.538L32.636 16.058C33.573 16.2097 34.4256 16.6894 35.0417 17.4114C35.6579 18.1334 35.9975 19.0508 36 20C36 21.366 35.308 22.63 34.15 23.384Z" fill="#3C64B1"/>
</svg>
