<svg width="40" height="40" viewBox="0 0 40 40" fill="none" xmlns="http://www.w3.org/2000/svg">
<g clip-path="url(#clip0)">
<path d="M27.9802 29.3995L28.2857 35.5966L22.0174 31.2405L15.7139 35.6007L16.0197 29.3995H13.3724L12.9161 38.6539H15.9479L22.0139 34.458L28.0518 38.6539H31.0838L30.6275 29.3995H27.9802Z" fill="#3C64B1"/>
<path d="M35.1717 10.4705L34.9904 6.49992L31.6427 4.35761L29.5 1.0096L25.5293 0.827819L22 -1L18.4707 0.828232L14.5 1.01001L12.3573 4.35761L9.0096 6.49992L8.82832 10.4705L7 13.9999L8.82832 17.5294L9.0101 21.4999L12.3573 23.6422L14.4997 26.9903L18.4704 27.1717L22 28.9999L25.5293 27.1717L29.5 26.9903L31.6424 23.6422L34.9903 21.5002L35.1717 17.5297L37 14.0002L35.1717 10.4705ZM32.5568 16.8287L32.4112 20.011L29.7278 21.7281L28.0108 24.4114L24.8284 24.5568L22 26.0221L19.1713 24.5568L15.9889 24.4114L14.2719 21.7281L11.5888 20.011L11.4435 16.8287L9.97759 13.9999L11.4432 11.1717L11.5888 7.98888L14.2719 6.27186L15.9889 3.58859L19.1713 3.44317L22 1.97784L24.8287 3.44309L28.0111 3.58851L29.7281 6.27178L32.4112 7.98888L32.5565 11.1713L34.0224 13.9999L32.5568 16.8287Z" fill="#3C64B1"/>
<path d="M24.8523 19.4607L21.4431 17.4528L17.8565 19.1236C17.7584 19.1694 17.6478 19.1815 17.5421 19.1579C17.2768 19.0992 17.1087 18.8356 17.1663 18.5693L18.0234 14.7066L15.3267 11.8113C15.2522 11.7317 15.2071 11.6302 15.1965 11.5228C15.184 11.3924 15.2239 11.2623 15.3072 11.1613C15.3906 11.0602 15.5107 10.9964 15.6411 10.9839L19.5793 10.6041L21.4994 7.14411C21.544 7.06354 21.6103 6.99707 21.6907 6.95224C21.7711 6.90741 21.8625 6.88602 21.9544 6.89047C22.0464 6.89493 22.1353 6.92507 22.211 6.97746C22.2867 7.02986 22.3462 7.10242 22.3828 7.18692L23.9606 10.8155L27.8442 11.5726C27.9506 11.5928 28.0478 11.6491 28.1192 11.7302C28.2994 11.9343 28.2808 12.2456 28.0767 12.4259L25.1129 15.0477L25.5924 18.9751C25.6052 19.0823 25.583 19.1911 25.5275 19.2849C25.391 19.5214 25.0878 19.5984 24.8523 19.4607Z" fill="#3C64B1"/>
</g>
<defs>
<clipPath id="clip0">
<rect width="40" height="40" fill="white"/>
</clipPath>
</defs>
</svg>
