<svg width="14" height="14" viewBox="0 0 14 14" fill="none" xmlns="http://www.w3.org/2000/svg">
<path d="M11.666 3.50002H9.91602V2.33335C9.91602 1.68994 9.39277 1.16669 8.74935 1.16669H5.24935C4.60593 1.16669 4.08268 1.68994 4.08268 2.33335V3.50002H2.33268C1.68927 3.50002 1.16602 4.02327 1.16602 4.66669V11.0834C1.16602 11.7268 1.68927 12.25 2.33268 12.25H11.666C12.3094 12.25 12.8327 11.7268 12.8327 11.0834V4.66669C12.8327 4.02327 12.3094 3.50002 11.666 3.50002ZM8.74935 2.33335V3.50002H5.24935V2.33335H8.74935ZM4.66602 4.66669H9.33268H11.666V6.41669H2.33268V4.66669H4.66602ZM2.33268 11.0834V7.58335H5.83268V8.75002H8.16602V7.58335H11.666L11.6666 11.0834H2.33268Z" fill="black"/>
</svg>
