<svg width="16" height="16" viewBox="0 0 16 16" fill="none" xmlns="http://www.w3.org/2000/svg">
<path d="M12.6667 9.05731V6.66665C12.6667 4.52198 11.21 2.71531 9.23667 2.17198C9.04133 1.67998 8.564 1.33331 8 1.33331C7.436 1.33331 6.95867 1.67998 6.76333 2.17198C4.79 2.71598 3.33333 4.52198 3.33333 6.66665V9.05731L2.19533 10.1953C2.07 10.32 2 10.4893 2 10.6666V12C2 12.3686 2.298 12.6666 2.66667 12.6666H13.3333C13.702 12.6666 14 12.3686 14 12V10.6666C14 10.4893 13.93 10.32 13.8047 10.1953L12.6667 9.05731ZM12.6667 11.3333H3.33333V10.9426L4.47133 9.80465C4.59667 9.67998 4.66667 9.51065 4.66667 9.33331V6.66665C4.66667 4.82865 6.162 3.33331 8 3.33331C9.838 3.33331 11.3333 4.82865 11.3333 6.66665V9.33331C11.3333 9.51065 11.4033 9.67998 11.5287 9.80465L12.6667 10.9426V11.3333ZM8 14.6666C8.874 14.6666 9.60467 14.1106 9.87867 13.3333H6.12133C6.39533 14.1106 7.126 14.6666 8 14.6666Z" fill="#5E5C5C"/>
</svg>
