<svg width="16" height="16" viewBox="0 0 16 16" fill="none" xmlns="http://www.w3.org/2000/svg">
<path d="M14.0007 2.66669H2.00065C1.63198 2.66669 1.33398 2.96469 1.33398 3.33335V12.6667C1.33398 13.0354 1.63198 13.3334 2.00065 13.3334H14.0007C14.3693 13.3334 14.6673 13.0354 14.6673 12.6667V3.33335C14.6673 2.96469 14.3693 2.66669 14.0007 2.66669ZM13.334 10C12.2293 10 11.334 10.8954 11.334 12H4.66732C4.66732 10.8954 3.77198 10 2.66732 10V6.00002C3.77198 6.00002 4.66732 5.10469 4.66732 4.00002H11.334C11.334 5.10469 12.2293 6.00002 13.334 6.00002V10Z" fill="#5E5C5C"/>
<path d="M8.00065 5.33331C6.52998 5.33331 5.33398 6.52931 5.33398 7.99998C5.33398 9.47065 6.52998 10.6666 8.00065 10.6666C9.47132 10.6666 10.6673 9.47065 10.6673 7.99998C10.6673 6.52931 9.47132 5.33331 8.00065 5.33331ZM8.00065 9.33331C7.26532 9.33331 6.66732 8.73531 6.66732 7.99998C6.66732 7.26465 7.26532 6.66665 8.00065 6.66665C8.73598 6.66665 9.33398 7.26465 9.33398 7.99998C9.33398 8.73531 8.73598 9.33331 8.00065 9.33331Z" fill="#5E5C5C"/>
</svg>
