<svg width="16" height="16" viewBox="0 0 16 16" fill="none" xmlns="http://www.w3.org/2000/svg">
<path d="M12.0007 1.33331H4.66732C3.93198 1.33331 3.33398 1.93131 3.33398 2.66665V4.66665C3.33398 5.40198 3.93198 5.99998 4.66732 5.99998H12.0007C12.736 5.99998 13.334 5.40198 13.334 4.66665V2.66665C13.334 1.93131 12.736 1.33331 12.0007 1.33331ZM4.66732 4.66665V2.66665H12.0007L12.002 4.66665H4.66732Z" fill="#5E5C5C"/>
<path d="M8.66732 9.99998V8.66665C8.66732 7.93131 8.06932 7.33331 7.33398 7.33331H2.66732V3.33331C1.93198 3.33331 1.33398 3.93131 1.33398 4.66665V7.33331C1.33398 8.06865 1.93198 8.66665 2.66732 8.66665H7.33398V9.99998C6.96532 9.99998 6.66732 10.298 6.66732 10.6666V14C6.66732 14.3686 6.96532 14.6666 7.33398 14.6666H8.66732C9.03598 14.6666 9.33398 14.3686 9.33398 14V10.6666C9.33398 10.298 9.03598 9.99998 8.66732 9.99998Z" fill="#5E5C5C"/>
</svg>
