<svg width="14" height="14" viewBox="0 0 14 14" fill="none" xmlns="http://www.w3.org/2000/svg">
<path d="M7 1.16669C5.39175 1.16669 4.08333 2.4751 4.08333 4.08335C4.08333 5.6916 5.39175 7.00002 7 7.00002C8.60825 7.00002 9.91667 5.6916 9.91667 4.08335C9.91667 2.4751 8.60825 1.16669 7 1.16669ZM7 5.83335C6.03517 5.83335 5.25 5.04819 5.25 4.08335C5.25 3.11852 6.03517 2.33335 7 2.33335C7.96483 2.33335 8.75 3.11852 8.75 4.08335C8.75 5.04819 7.96483 5.83335 7 5.83335ZM12.25 12.25V11.6667C12.25 9.4156 10.4177 7.58335 8.16667 7.58335H5.83333C3.58167 7.58335 1.75 9.4156 1.75 11.6667V12.25H2.91667V11.6667C2.91667 10.0584 4.22508 8.75002 5.83333 8.75002H8.16667C9.77492 8.75002 11.0833 10.0584 11.0833 11.6667V12.25H12.25Z" fill="black"/>
</svg>
