<svg width="18" height="18" viewBox="0 0 18 18" fill="none" xmlns="http://www.w3.org/2000/svg">
<path d="M9 3.75C5.27325 3.75 1.5 4.9095 1.5 7.125C1.5 9.3405 5.27325 10.5 9 10.5C12.7275 10.5 16.5 9.3405 16.5 7.125C16.5 4.9095 12.7275 3.75 9 3.75ZM5.25 11.2035V13.4535C6.17775 13.6777 7.20375 13.815 8.25 13.8593V11.6093C7.20375 11.5642 6.17775 11.427 5.25 11.2035ZM9.75 11.6085V13.8585C10.7963 13.8143 11.823 13.677 12.75 13.4528V11.2028C11.823 11.427 10.7963 11.5642 9.75 11.6085ZM14.25 10.7227V12.9728C15.6007 12.4065 16.5 11.58 16.5 10.5V8.25C16.5 9.33 15.6007 10.1565 14.25 10.7227ZM3.75 12.9728V10.7227C2.4 10.1565 1.5 9.32925 1.5 8.25V10.5C1.5 11.5792 2.4 12.4065 3.75 12.9728Z" fill="#838282"/>
</svg>
