<svg width="16" height="17" viewBox="0 0 16 17" fill="none" xmlns="http://www.w3.org/2000/svg">
<path d="M14.0007 4.49998H11.334V2.49998C11.334 2.13131 11.036 1.83331 10.6673 1.83331H5.33398C4.96532 1.83331 4.66732 2.13131 4.66732 2.49998V7.16665H2.00065C1.63198 7.16665 1.33398 7.46465 1.33398 7.83331V13.1666C1.33398 13.5353 1.63198 13.8333 2.00065 13.8333H4.66732H8.00065H11.334H14.0007C14.3693 13.8333 14.6673 13.5353 14.6673 13.1666V5.16665C14.6673 4.79798 14.3693 4.49998 14.0007 4.49998ZM4.00065 12.5H2.66732V11.1666H4.00065V12.5ZM4.00065 9.83331H2.66732V8.49998H4.00065V9.83331ZM7.33398 12.5H6.00065V11.1666H7.33398V12.5ZM7.33398 9.83331H6.00065V8.49998H7.33398V9.83331ZM7.33398 7.16665H6.00065V5.83331H7.33398V7.16665ZM7.33398 4.49998H6.00065V3.16665H7.33398V4.49998ZM10.0007 12.5H8.66732V11.1666H10.0007V12.5ZM10.0007 9.83331H8.66732V8.49998H10.0007V9.83331ZM10.0007 7.16665H8.66732V5.83331H10.0007V7.16665ZM10.0007 4.49998H8.66732V3.16665H10.0007V4.49998ZM13.334 12.5H12.0007V11.1666H13.334V12.5ZM13.334 9.83331H12.0007V8.49998H13.334V9.83331ZM13.334 7.16665H12.0007V5.83331H13.334V7.16665Z" fill="#68AB27"/>
</svg>
