<svg width="16" height="17" viewBox="0 0 16 17" fill="none" xmlns="http://www.w3.org/2000/svg">
<path d="M14.3707 5.94531L8.37065 1.94531C8.14665 1.79598 7.85532 1.79598 7.63132 1.94531L1.63132 5.94531C1.44198 6.07131 1.33665 6.28131 1.33665 6.49998H1.33398V7.16665V7.83331V13.8333C1.33398 14.5693 1.93132 15.1666 2.66732 15.1666H13.334C14.07 15.1666 14.6673 14.5693 14.6673 13.8333V7.83331V7.16665V6.49998H14.6647C14.6647 6.28131 14.5593 6.07131 14.3707 5.94531ZM13.334 8.96665L8.00065 11.8333L2.66732 8.96665V7.83331V7.36465L8.00065 10.2306L13.334 7.36465V7.83331V8.96665Z" fill="#68AB27"/>
</svg>
