<svg width="16" height="17" viewBox="0 0 16 17" fill="none" xmlns="http://www.w3.org/2000/svg">
<path d="M13.3335 7.83265H14.6668C14.6668 4.41265 12.0848 1.83331 8.66016 1.83331V3.16665C11.3682 3.16665 13.3335 5.12865 13.3335 7.83265Z" fill="#68AB27"/>
<path d="M8.66685 5.83335C10.0689 5.83335 10.6669 6.43135 10.6669 7.83335H12.0002C12.0002 5.68335 10.8169 4.50002 8.66685 4.50002V5.83335ZM10.9482 9.46202C10.6822 9.22002 10.2715 9.23269 10.0209 9.49069L8.42552 11.1314C8.04152 11.058 7.26952 10.8174 6.47485 10.0247C5.68019 9.22935 5.43952 8.45535 5.36819 8.07402L7.00752 6.47802C7.26619 6.22735 7.27819 5.81735 7.03619 5.55069L4.57285 2.84202C4.33085 2.57469 3.91952 2.54935 3.64552 2.78402L2.19885 4.02469C2.08352 4.14069 2.01485 4.29402 2.00552 4.45735C1.99552 4.62402 1.80485 8.57202 4.86619 11.6347C7.53685 14.3047 10.8822 14.5 11.8035 14.5C11.9382 14.5 12.0209 14.496 12.0429 14.4947C12.2062 14.4854 12.3595 14.4167 12.4749 14.3007L13.7149 12.8534C13.9502 12.5794 13.9235 12.1687 13.6575 11.926L10.9482 9.46202Z" fill="#68AB27"/>
</svg>
