<svg width="16" height="16" viewBox="0 0 16 16" fill="none" xmlns="http://www.w3.org/2000/svg">
<path d="M2.2897 11.55L2.0537 13.2C2.0237 13.408 2.0937 13.6173 2.2417 13.766C2.3897 13.9147 2.5997 13.984 2.8077 13.954L4.4577 13.718C4.7077 13.6827 5.33437 12 5.33437 12C5.33437 12 5.64903 12.27 5.7777 12.3107C6.05237 12.3973 6.3197 12.128 6.4097 11.8547L6.6677 10.6733C6.6677 10.6733 7.05237 10.868 7.1917 10.8967C7.36903 10.9333 7.54103 10.824 7.66303 10.7013C7.73437 10.63 7.79037 10.542 7.8237 10.4407L8.00103 9.34C8.00103 9.34 8.45103 9.46467 8.60503 9.48267C8.78037 9.50267 8.95103 9.41334 9.07637 9.28734L9.83503 8.52934C11.1024 8.93734 12.5504 8.64267 13.5557 7.63734C14.985 6.20734 14.985 3.88134 13.5557 2.452C12.1257 1.02267 9.7997 1.02267 8.37037 2.452C7.36503 3.45734 7.0697 4.90467 7.47837 6.17267L2.4777 11.1727C2.3757 11.2747 2.3097 11.4067 2.2897 11.55ZM12.337 3.67067C13.0944 4.42934 13.0944 5.65934 12.337 6.41867L9.58903 3.67067C10.3484 2.91334 11.5784 2.91334 12.337 3.67067Z" fill="#5E5C5C"/>
</svg>
