<svg width="45" height="45" viewBox="0 0 45 45" fill="none" xmlns="http://www.w3.org/2000/svg">
<path d="M37.5 11.25H31.875V7.5C31.875 5.43187 30.1931 3.75 28.125 3.75H16.875C14.8069 3.75 13.125 5.43187 13.125 7.5V11.25H7.5C5.43187 11.25 3.75 12.9319 3.75 15V35.625C3.75 37.6931 5.43187 39.375 7.5 39.375H37.5C39.5681 39.375 41.25 37.6931 41.25 35.625V15C41.25 12.9319 39.5681 11.25 37.5 11.25ZM28.125 7.5V11.25H16.875V7.5H28.125ZM15 15H30H37.5V20.625H7.5V15H15ZM7.5 35.625V24.375H18.75V28.125H26.25V24.375H37.5L37.5019 35.625H7.5Z" fill="#838282"/>
</svg>
