<svg width="45" height="45" viewBox="0 0 45 45" fill="none" xmlns="http://www.w3.org/2000/svg">
<path d="M37.3181 16.0987C37.2262 15.9 37.1119 15.7106 36.9506 15.5494L25.7006 4.29937C25.5394 4.13812 25.35 4.02375 25.1512 3.93187C25.095 3.90562 25.035 3.89062 24.975 3.87C24.8175 3.8175 24.6562 3.78375 24.4894 3.77438C24.45 3.77063 24.4144 3.75 24.375 3.75H11.25C9.18187 3.75 7.5 5.43187 7.5 7.5V37.5C7.5 39.5681 9.18187 41.25 11.25 41.25H33.75C35.8181 41.25 37.5 39.5681 37.5 37.5V16.875C37.5 16.8356 37.4794 16.8 37.4756 16.7587C37.4662 16.5919 37.4344 16.4306 37.38 16.2731C37.3612 16.2131 37.3444 16.155 37.3181 16.0987ZM31.0987 15H26.25V10.1512L31.0987 15ZM11.25 37.5V7.5H22.5V16.875C22.5 17.9119 23.3381 18.75 24.375 18.75H33.75L33.7537 37.5H11.25Z" fill="#838282"/>
<path d="M15 22.5H30V26.25H15V22.5ZM15 30H30V33.75H15V30ZM15 15H18.75V18.75H15V15Z" fill="#838282"/>
</svg>
