<svg width="40" height="40" viewBox="0 0 40 40" fill="none" xmlns="http://www.w3.org/2000/svg">
<path d="M19.9983 3.32166C10.81 3.32332 3.33333 10.8 3.33167 19.99C3.33167 29.18 10.8083 36.6567 20 36.6567C29.19 36.655 36.6667 29.1783 36.6667 19.99C36.6667 10.8 29.19 3.32332 19.9983 3.32166ZM20 33.3233C12.6467 33.3233 6.665 27.3417 6.665 19.99C6.66667 12.6383 12.6483 6.65666 19.9983 6.65499C27.3517 6.65666 33.3333 12.6383 33.3333 19.99C33.3333 27.34 27.3517 33.3217 20 33.3233Z" fill="#517FD9"/>
<path d="M20.02 13.3151L13.345 19.9901L20.02 26.6634V21.6567H26.6766V18.3234H20.02V13.3151Z" fill="#517FD9"/>
</svg>
