<svg width="40" height="40" viewBox="0 0 40 40" fill="none" xmlns="http://www.w3.org/2000/svg">
<path d="M19.9987 3.32166C10.8104 3.32332 3.3337 10.8 3.33203 19.99C3.33203 29.18 10.8087 36.6567 20.0004 36.6567C29.1904 36.655 36.667 29.1783 36.667 19.99C36.667 10.8 29.1904 3.32332 19.9987 3.32166ZM20.0004 33.3233C12.647 33.3233 6.66536 27.3417 6.66536 19.99C6.66703 12.6383 12.6487 6.65666 19.9987 6.65499C27.352 6.65666 33.3337 12.6383 33.3337 19.99C33.3337 27.34 27.352 33.3217 20.0004 33.3233Z" fill="#13114F"/>
<path d="M20.0197 13.3151L13.3447 19.9901L20.0197 26.6634V21.6567H26.6764V18.3234H20.0197V13.3151Z" fill="#13114F"/>
</svg>
