<svg width="45" height="45" viewBox="0 0 45 45" fill="none" xmlns="http://www.w3.org/2000/svg">
<g filter="url(#filter0_d)">
<path d="M13.25 22.2001H31.75L22.5 11.1001L13.25 22.2001Z" fill="white"/>
<path d="M22.5 0C12.2991 0 4 8.2991 4 18.5C4 28.7009 12.2991 37 22.5 37C32.7009 37 41 28.7009 41 18.5C41 8.2991 32.7009 0 22.5 0ZM22.5 33.3C14.3397 33.3 7.7 26.6604 7.7 18.5C7.7 10.3397 14.3397 3.7 22.5 3.7C30.6604 3.7 37.3 10.3397 37.3 18.5C37.3 26.6604 30.6604 33.3 22.5 33.3Z" fill="white"/>
</g>
<defs>
<filter id="filter0_d" x="0" y="0" width="45" height="45" filterUnits="userSpaceOnUse" color-interpolation-filters="sRGB">
<feFlood flood-opacity="0" result="BackgroundImageFix"/>
<feColorMatrix in="SourceAlpha" type="matrix" values="0 0 0 0 0 0 0 0 0 0 0 0 0 0 0 0 0 0 127 0"/>
<feOffset dy="4"/>
<feGaussianBlur stdDeviation="2"/>
<feColorMatrix type="matrix" values="0 0 0 0 0 0 0 0 0 0 0 0 0 0 0 0 0 0 0.25 0"/>
<feBlend mode="normal" in2="BackgroundImageFix" result="effect1_dropShadow"/>
<feBlend mode="normal" in="SourceGraphic" in2="effect1_dropShadow" result="shape"/>
</filter>
</defs>
</svg>
