<svg width="14" height="14" viewBox="0 0 14 14" fill="none" xmlns="http://www.w3.org/2000/svg">
<path d="M1 7.75H5.5C5.914 7.75 6.25 7.41475 6.25 7V1C6.25 0.58525 5.914 0.25 5.5 0.25H1C0.586 0.25 0.25 0.58525 0.25 1V7C0.25 7.41475 0.586 7.75 1 7.75ZM0.25 13C0.25 13.4148 0.586 13.75 1 13.75H5.5C5.914 13.75 6.25 13.4148 6.25 13V10C6.25 9.58525 5.914 9.25 5.5 9.25H1C0.586 9.25 0.25 9.58525 0.25 10V13ZM7.75 13C7.75 13.4148 8.08525 13.75 8.5 13.75H13C13.4148 13.75 13.75 13.4148 13.75 13V7.75C13.75 7.33525 13.4148 7 13 7H8.5C8.08525 7 7.75 7.33525 7.75 7.75V13ZM8.5 5.5H13C13.4148 5.5 13.75 5.16475 13.75 4.75V1C13.75 0.58525 13.4148 0.25 13 0.25H8.5C8.08525 0.25 7.75 0.58525 7.75 1V4.75C7.75 5.16475 8.08525 5.5 8.5 5.5Z" fill="#68AB27"/>
</svg>
