<svg width="62" height="43" viewBox="0 0 62 43" fill="none" xmlns="http://www.w3.org/2000/svg">
<path d="M36.6643 21.2917C33.3336 21.2917 30.5809 18.5389 30.5809 15.2083C30.5809 14.1316 30.8942 13.1309 31.3961 12.2488C31.1223 12.2275 30.8608 12.1667 30.5809 12.1667C25.5865 12.1667 21.4559 16.3003 21.4559 21.2917C21.4559 26.2861 25.5865 30.4167 30.5809 30.4167C35.5723 30.4167 39.7059 26.2861 39.7059 21.2917C39.7059 21.0118 39.6451 20.7502 39.6238 20.4765C38.7417 20.9784 37.741 21.2917 36.6643 21.2917Z" fill="white"/>
<path d="M30.5809 0C7.36387 0 0.386292 20.1267 0.322417 20.3305L0 21.2917L0.319375 22.2528C0.386292 22.4566 7.36387 42.5833 30.5809 42.5833C53.798 42.5833 60.7755 22.4566 60.8394 22.2528L61.1618 21.2917L60.8425 20.3305C60.7755 20.1267 53.798 0 30.5809 0ZM30.5809 36.5C14.305 36.5 7.99958 24.8018 6.47267 21.2917C8.00567 17.7694 14.3141 6.08333 30.5809 6.08333C46.8569 6.08333 53.1623 17.7816 54.6892 21.2917C53.1562 24.8139 46.8477 36.5 30.5809 36.5Z" fill="white"/>
</svg>
