<svg width="17" height="18" viewBox="0 0 17 18" fill="none" xmlns="http://www.w3.org/2000/svg">
<g clip-path="url(#clip0)">
<path d="M15.675 2.25H0.825C0.369445 2.25 0 2.75379 0 3.375V14.625C0 15.2462 0.369445 15.75 0.825 15.75H15.675C16.1306 15.75 16.5 15.2462 16.5 14.625V3.375C16.5 2.75379 16.1306 2.25 15.675 2.25ZM1.2375 14.0625V11.8125C2.14887 11.8125 2.8875 12.8197 2.8875 14.0625H1.2375ZM1.2375 6.1875V3.9375H2.8875C2.8875 5.18027 2.14887 6.1875 1.2375 6.1875ZM8.25 12.375C7.11073 12.375 6.1875 10.8636 6.1875 9C6.1875 7.13602 7.11098 5.625 8.25 5.625C9.38902 5.625 10.3125 7.13602 10.3125 9C10.3125 10.8643 9.38876 12.375 8.25 12.375ZM15.2625 14.0625H13.6125C13.6125 12.8197 14.3511 11.8125 15.2625 11.8125V14.0625ZM15.2625 6.1875C14.3511 6.1875 13.6125 5.18027 13.6125 3.9375H15.2625V6.1875Z" fill="#68AB27"/>
</g>
<defs>
<clipPath id="clip0">
<rect width="16.5" height="18" fill="white"/>
</clipPath>
</defs>
</svg>
