<svg width="20" height="20" viewBox="0 0 20 20" fill="none" xmlns="http://www.w3.org/2000/svg">
<path d="M16.25 2.5C15.1008 2.5 14.1667 3.43416 14.1667 4.58333C14.1667 4.88083 14.2317 5.16333 14.345 5.42083L12.7158 7.25333C12.1792 6.885 11.5325 6.66666 10.8333 6.66666C10.2167 6.66666 9.64667 6.84666 9.15083 7.13833L7.25583 5.24416L7.23667 5.26333C7.4 4.93166 7.5 4.5625 7.5 4.16666C7.5 2.78583 6.38083 1.66666 5 1.66666C3.61917 1.66666 2.5 2.78583 2.5 4.16666C2.5 5.5475 3.61917 6.66666 5 6.66666C5.39583 6.66666 5.76417 6.56666 6.09667 6.40333L6.0775 6.4225L7.9725 8.31666C7.67917 8.81333 7.5 9.38416 7.5 10C7.5 10.8308 7.81667 11.5825 8.32083 12.1675L6.17333 14.3142C5.93833 14.2217 5.68417 14.1667 5.41667 14.1667C4.26833 14.1667 3.33333 15.1008 3.33333 16.25C3.33333 17.3992 4.26833 18.3333 5.41667 18.3333C6.565 18.3333 7.5 17.3992 7.5 16.25C7.5 15.9825 7.445 15.7283 7.3525 15.4925L9.7175 13.1275C10.0683 13.2525 10.44 13.3333 10.8333 13.3333C12.6717 13.3333 14.1667 11.8383 14.1667 10C14.1667 9.47 14.0308 8.97583 13.81 8.53L15.5742 6.54416C15.7875 6.6175 16.0125 6.66666 16.25 6.66666C17.3992 6.66666 18.3333 5.7325 18.3333 4.58333C18.3333 3.43416 17.3992 2.5 16.25 2.5ZM10.8333 11.6667C9.91417 11.6667 9.16667 10.9192 9.16667 10C9.16667 9.08083 9.91417 8.33333 10.8333 8.33333C11.7525 8.33333 12.5 9.08083 12.5 10C12.5 10.9192 11.7525 11.6667 10.8333 11.6667Z" fill="#68AB27"/>
</svg>
