<svg width="18" height="18" viewBox="0 0 18 18" fill="none" xmlns="http://www.w3.org/2000/svg">
<path d="M14.625 2.25C13.5907 2.25 12.75 3.09075 12.75 4.125C12.75 4.39275 12.8085 4.647 12.9105 4.87875L11.4443 6.528C10.9613 6.1965 10.3792 6 9.75 6C9.195 6 8.682 6.162 8.23575 6.4245L6.53025 4.71975L6.513 4.737C6.66 4.4385 6.75 4.10625 6.75 3.75C6.75 2.50725 5.74275 1.5 4.5 1.5C3.25725 1.5 2.25 2.50725 2.25 3.75C2.25 4.99275 3.25725 6 4.5 6C4.85625 6 5.18775 5.91 5.487 5.763L5.46975 5.78025L7.17525 7.485C6.91125 7.932 6.75 8.44575 6.75 9C6.75 9.74775 7.035 10.4242 7.48875 10.9508L5.556 12.8827C5.3445 12.7995 5.11575 12.75 4.875 12.75C3.8415 12.75 3 13.5907 3 14.625C3 15.6593 3.8415 16.5 4.875 16.5C5.9085 16.5 6.75 15.6593 6.75 14.625C6.75 14.3842 6.7005 14.1555 6.61725 13.9432L8.74575 11.8148C9.0615 11.9272 9.396 12 9.75 12C11.4045 12 12.75 10.6545 12.75 9C12.75 8.523 12.6278 8.07825 12.429 7.677L14.0167 5.88975C14.2087 5.95575 14.4113 6 14.625 6C15.6593 6 16.5 5.15925 16.5 4.125C16.5 3.09075 15.6593 2.25 14.625 2.25ZM9.75 10.5C8.92275 10.5 8.25 9.82725 8.25 9C8.25 8.17275 8.92275 7.5 9.75 7.5C10.5773 7.5 11.25 8.17275 11.25 9C11.25 9.82725 10.5773 10.5 9.75 10.5Z" fill="#FCFBFB"/>
</svg>
