<svg width="75" height="75" viewBox="0 0 75 75" fill="none" xmlns="http://www.w3.org/2000/svg">
<path d="M65.1316 3.75C59.6882 3.75 55.2632 7.95375 55.2632 13.125C55.2632 14.4637 55.5711 15.735 56.1079 16.8938L48.3908 25.14C45.8487 23.4825 42.7855 22.5 39.4737 22.5C36.5526 22.5 33.8526 23.31 31.5039 24.6225L22.5276 16.0988L22.4368 16.185C23.2105 14.6925 23.6842 13.0312 23.6842 11.25C23.6842 5.03625 18.3829 0 11.8421 0C5.30132 0 0 5.03625 0 11.25C0 17.4637 5.30132 22.5 11.8421 22.5C13.7171 22.5 15.4618 22.05 17.0368 21.315L16.9461 21.4012L25.9224 29.925C24.5329 32.16 23.6842 34.7287 23.6842 37.5C23.6842 41.2388 25.1842 44.6213 27.5724 47.2537L17.4 56.9137C16.2868 56.4975 15.0829 56.25 13.8158 56.25C8.37632 56.25 3.94737 60.4538 3.94737 65.625C3.94737 70.7962 8.37632 75 13.8158 75C19.2553 75 23.6842 70.7962 23.6842 65.625C23.6842 64.4212 23.4237 63.2775 22.9855 62.2162L34.1882 51.5737C35.85 52.1362 37.6105 52.5 39.4737 52.5C48.1816 52.5 55.2632 45.7725 55.2632 37.5C55.2632 35.115 54.6197 32.8913 53.5737 30.885L61.9303 21.9488C62.9408 22.2788 64.0066 22.5 65.1316 22.5C70.575 22.5 75 18.2962 75 13.125C75 7.95375 70.575 3.75 65.1316 3.75ZM39.4737 45C35.1197 45 31.5789 41.6362 31.5789 37.5C31.5789 33.3638 35.1197 30 39.4737 30C43.8276 30 47.3684 33.3638 47.3684 37.5C47.3684 41.6362 43.8276 45 39.4737 45Z" fill="#517FD9"/>
</svg>
