<svg width="57" height="63" viewBox="0 0 57 63" fill="none" xmlns="http://www.w3.org/2000/svg">
<path d="M50.375 0.281311H9.75C5.98125 0.281311 0.375 2.77819 0.375 9.65631V19.0313V37.7813V47.1563V53.4063C0.375 60.2844 5.98125 62.7813 9.75 62.7813H56.625V56.5313H9.7875C8.34375 56.4938 6.625 55.9219 6.625 53.4063C6.625 53.0907 6.65313 52.8094 6.7 52.5532C7.05 50.7563 8.52188 50.3126 9.78438 50.2813H53.5C53.5563 50.2813 53.5969 50.2532 53.6531 50.2501H56.625V47.1563V40.8751V6.53131C56.625 3.08444 53.8219 0.281311 50.375 0.281311ZM50.375 44.0313H6.625V37.7813V19.0313V9.65631C6.625 7.13756 8.34375 6.56881 9.75 6.53131H31.625V28.4063L37.875 25.2813L44.125 28.4063V6.53131H50.375V40.8751V44.0313Z" fill="#68AB27"/>
</svg>
