<svg width="80" height="75" viewBox="0 0 80 75" fill="none" xmlns="http://www.w3.org/2000/svg">
<path d="M70 12.5H9.99996C8.15663 12.5 6.66663 13.8969 6.66663 15.625V59.375C6.66663 61.1031 8.15663 62.5 9.99996 62.5H70C71.8433 62.5 73.3333 61.1031 73.3333 59.375V15.625C73.3333 13.8969 71.8433 12.5 70 12.5ZM66.6666 46.875C61.1433 46.875 56.6666 51.0719 56.6666 56.25H23.3333C23.3333 51.0719 18.8566 46.875 13.3333 46.875V28.125C18.8566 28.125 23.3333 23.9281 23.3333 18.75H56.6666C56.6666 23.9281 61.1433 28.125 66.6666 28.125V46.875Z" fill="#517FD9"/>
<path d="M40 25C32.6466 25 26.6666 30.6062 26.6666 37.5C26.6666 44.3938 32.6466 50 40 50C47.3533 50 53.3333 44.3938 53.3333 37.5C53.3333 30.6062 47.3533 25 40 25ZM40 43.75C36.3233 43.75 33.3333 40.9469 33.3333 37.5C33.3333 34.0531 36.3233 31.25 40 31.25C43.6766 31.25 46.6666 34.0531 46.6666 37.5C46.6666 40.9469 43.6766 43.75 40 43.75Z" fill="#517FD9"/>
</svg>
