<svg width="80" height="75" viewBox="0 0 80 75" fill="none" xmlns="http://www.w3.org/2000/svg">
<path d="M70.0003 12.5H10.0003C8.15699 12.5 6.66699 13.8969 6.66699 15.625V59.375C6.66699 61.1031 8.15699 62.5 10.0003 62.5H70.0003C71.8437 62.5 73.3337 61.1031 73.3337 59.375V15.625C73.3337 13.8969 71.8437 12.5 70.0003 12.5ZM66.667 46.875C61.1437 46.875 56.667 51.0719 56.667 56.25H23.3337C23.3337 51.0719 18.857 46.875 13.3337 46.875V28.125C18.857 28.125 23.3337 23.9281 23.3337 18.75H56.667C56.667 23.9281 61.1437 28.125 66.667 28.125V46.875Z" fill="#13114F"/>
<path d="M40.0003 25C32.647 25 26.667 30.6062 26.667 37.5C26.667 44.3938 32.647 50 40.0003 50C47.3537 50 53.3337 44.3938 53.3337 37.5C53.3337 30.6062 47.3537 25 40.0003 25ZM40.0003 43.75C36.3237 43.75 33.3337 40.9469 33.3337 37.5C33.3337 34.0531 36.3237 31.25 40.0003 31.25C43.677 31.25 46.667 34.0531 46.667 37.5C46.667 40.9469 43.677 43.75 40.0003 43.75Z" fill="#13114F"/>
</svg>
