<svg width="49" height="49" viewBox="0 0 49 49" fill="none" xmlns="http://www.w3.org/2000/svg">
<path d="M47.2643 0.441135C46.5221 -0.0646566 45.569 -0.140907 44.7506 0.240343L1.54226 20.5737C0.639963 21.0007 0.07063 21.9131 0.0833383 22.9095C0.0985883 23.9058 0.693338 24.803 1.60834 25.202L15.3333 31.208V48.2931L30.1665 37.6994L42.275 42.9963C42.6003 43.1411 42.9486 43.2098 43.2917 43.2098C43.7517 43.2098 44.2067 43.0852 44.6133 42.8387C45.3199 42.4091 45.7749 41.6619 45.8308 40.8358L48.3725 2.71084C48.4284 1.81109 48.009 0.949468 47.2643 0.441135ZM40.9966 36.8886L27.6045 31.0275L35.6667 15.2514L16.2255 26.0535L8.7733 22.7925L43.0121 6.67839L40.9966 36.8886Z" fill="white"/>
</svg>
