<svg width="65" height="52" viewBox="0 0 65 52" fill="none" xmlns="http://www.w3.org/2000/svg">
<path d="M5.51445 7.449C10.0728 2.50575 16.9703 0 26.0123 0H29.2612V9.16175L26.6491 9.685C22.198 10.5755 19.1017 12.3272 17.4447 14.898C16.4278 16.4807 16.0931 18.1707 16.0216 19.5H22.7633H26.0123C27.8089 19.5 29.2612 20.9527 29.2612 22.75V45.5C29.2612 49.0848 26.3469 52 22.7633 52H3.26941C1.47272 52 0.020429 50.5472 0.020429 48.75V32.5L0.030176 23.0133C0.000935226 22.6525 -0.616371 14.105 5.51445 7.449ZM58.502 52H39.0082C37.2115 52 35.7592 50.5472 35.7592 48.75V32.5L35.7689 23.0133C35.7397 22.6525 35.1224 14.105 41.2532 7.449C45.8115 2.50575 52.7091 0 61.751 0H65V9.16175L62.3878 9.685C57.9367 10.5755 54.8404 12.3272 53.1835 14.898C52.1665 16.4807 51.8319 18.1707 51.7604 19.5H58.502H61.751C63.5477 19.5 65 20.9527 65 22.75V45.5C65 49.0848 62.0857 52 58.502 52Z" fill="#13114F"/>
</svg>
