<svg width="18" height="18" viewBox="0 0 18 18" fill="none" xmlns="http://www.w3.org/2000/svg">
<path d="M1.75858 11.4532L3.25858 14.0483C3.46558 14.4068 3.92458 14.5298 4.28308 14.322L5.33008 13.7175C5.76508 14.0603 6.24583 14.3415 6.75133 14.5515V15.75C6.75133 16.164 7.08658 16.5 7.50133 16.5H10.5013C10.9161 16.5 11.2513 16.164 11.2513 15.75V14.5515C11.7568 14.3415 12.2368 14.0603 12.6726 13.7175L13.7196 14.322C14.0773 14.5283 14.5378 14.4045 14.7441 14.0483L16.2441 11.4532C16.4503 11.0962 16.3266 10.635 15.9703 10.4288L14.9413 9.834C14.9803 9.55725 15.0006 9.27825 15.0006 9C15.0006 8.72175 14.9803 8.44275 14.9398 8.166L15.9688 7.57125C16.3258 7.365 16.4496 6.90375 16.2426 6.54675L14.7426 3.95175C14.5356 3.59325 14.0766 3.47025 13.7181 3.678L12.6711 4.2825C12.2361 3.93975 11.7561 3.65775 11.2506 3.4485V2.25C11.2506 1.836 10.9153 1.5 10.5006 1.5H7.50058C7.08583 1.5 6.75058 1.836 6.75058 2.25V3.4485C6.24508 3.6585 5.76508 3.93975 5.32933 4.2825L4.28308 3.678C3.92383 3.47025 3.46558 3.59325 3.25858 3.95175L1.75858 6.54675C1.55233 6.90375 1.67608 7.365 2.03233 7.57125L3.06133 8.166C3.02083 8.44275 3.00058 8.72175 3.00058 9C3.00058 9.27825 3.02083 9.55725 3.06133 9.834L2.03233 10.4288C1.67533 10.635 1.55158 11.0962 1.75858 11.4532ZM9.00058 6C10.6551 6 12.0006 7.3455 12.0006 9C12.0006 10.6545 10.6551 12 9.00058 12C7.34608 12 6.00058 10.6545 6.00058 9C6.00058 7.3455 7.34608 6 9.00058 6Z" fill="#FCFBFB"/>
</svg>
