<svg width="20" height="20" viewBox="0 0 20 20" fill="none" xmlns="http://www.w3.org/2000/svg">
<path d="M1.95333 12.7259L3.62 15.6092C3.85 16.0075 4.36 16.1442 4.75833 15.9134L5.92166 15.2417C6.40499 15.6225 6.93916 15.935 7.50083 16.1684V17.5C7.50083 17.96 7.87333 18.3334 8.33416 18.3334H11.6675C12.1283 18.3334 12.5008 17.96 12.5008 17.5V16.1684C13.0625 15.935 13.5958 15.6225 14.08 15.2417L15.2433 15.9134C15.6408 16.1425 16.1525 16.005 16.3817 15.6092L18.0483 12.7259C18.2775 12.3292 18.14 11.8167 17.7442 11.5875L16.6008 10.9267C16.6442 10.6192 16.6667 10.3092 16.6667 10C16.6667 9.69085 16.6442 9.38085 16.5992 9.07335L17.7425 8.41252C18.1392 8.18335 18.2767 7.67085 18.0467 7.27419L16.38 4.39085C16.15 3.99252 15.64 3.85585 15.2417 4.08669L14.0783 4.75835C13.595 4.37752 13.0617 4.06419 12.5 3.83169V2.50002C12.5 2.04002 12.1275 1.66669 11.6667 1.66669H8.33333C7.87249 1.66669 7.49999 2.04002 7.49999 2.50002V3.83169C6.93833 4.06502 6.40499 4.37752 5.92083 4.75835L4.75833 4.08669C4.35916 3.85585 3.85 3.99252 3.62 4.39085L1.95333 7.27419C1.72416 7.67085 1.86166 8.18335 2.2575 8.41252L3.40083 9.07335C3.35583 9.38085 3.33333 9.69085 3.33333 10C3.33333 10.3092 3.35583 10.6192 3.40083 10.9267L2.2575 11.5875C1.86083 11.8167 1.72333 12.3292 1.95333 12.7259ZM10 6.66669C11.8383 6.66669 13.3333 8.16169 13.3333 10C13.3333 11.8384 11.8383 13.3334 10 13.3334C8.16166 13.3334 6.66666 11.8384 6.66666 10C6.66666 8.16169 8.16166 6.66669 10 6.66669Z" fill="#68AB27"/>
</svg>
