<svg width="30" height="30" viewBox="0 0 30 30" fill="none" xmlns="http://www.w3.org/2000/svg">
<path d="M0.947438 15.6573L6.39762 18.043L22.104 9.47429L12.6309 20.5266L26.209 26.7096C26.4111 26.7996 26.6274 26.8422 26.8405 26.8422C27.1263 26.8422 27.4089 26.7648 27.6615 26.6117C28.1005 26.3448 28.3831 25.8806 28.4178 25.3675L29.9966 1.68399C30.033 1.12506 29.7724 0.589816 29.3098 0.274036C28.8488 -0.0401652 28.2568 -0.0875322 27.7484 0.149303L0.907967 12.7805C0.345897 13.0458 -0.00776476 13.6126 0.000129472 14.2315C0.00960256 14.8504 0.379053 15.4078 0.947438 15.6573ZM9.47321 30L17.0138 26.3433L9.47321 22.8255V30Z" fill="white"/>
</svg>
