<svg width="47" height="47" viewBox="0 0 47 47" fill="none" xmlns="http://www.w3.org/2000/svg">
<circle cx="23.5" cy="23.5" r="23.5" fill="#6B98EF"/>
<path d="M22.72 9.37158C14.8972 9.37158 8.55475 15.714 8.55475 23.5368C8.55475 30.606 13.7341 36.4653 20.5072 37.5321V27.6324H16.9088V23.5368H20.5072V20.4159C20.5072 16.8629 22.6222 14.9037 25.8565 14.9037C27.4063 14.9037 29.0298 15.1799 29.0298 15.1799V18.6635H27.2392C25.4825 18.6635 24.9328 19.7572 24.9328 20.8777V23.534H28.8584L28.2308 27.6296H24.9328V37.5292C31.7059 36.4682 36.8852 30.6074 36.8852 23.5368C36.8852 15.714 30.5428 9.37158 22.72 9.37158Z" fill="#FCFBFB"/>
</svg>
