<svg width="47" height="47" viewBox="0 0 47 47" fill="none" xmlns="http://www.w3.org/2000/svg">
<circle cx="23.5" cy="23.5" r="23.5" fill="#FCFBFB"/>
<path d="M22.7199 9.37158C14.8971 9.37158 8.55469 15.714 8.55469 23.5368C8.55469 30.606 13.734 36.4653 20.5071 37.5321V27.6324H16.9088V23.5368H20.5071V20.4159C20.5071 16.8629 22.6222 14.9037 25.8564 14.9037C27.4063 14.9037 29.0298 15.1799 29.0298 15.1799V18.6635H27.2391C25.4824 18.6635 24.9328 19.7572 24.9328 20.8777V23.534H28.8584L28.2308 27.6296H24.9328V37.5292C31.7059 36.4682 36.8852 30.6074 36.8852 23.5368C36.8852 15.714 30.5428 9.37158 22.7199 9.37158Z" fill="#13114F"/>
</svg>
