<svg width="46" height="47" viewBox="0 0 46 47" fill="none" xmlns="http://www.w3.org/2000/svg">
<ellipse cx="23" cy="23.5" rx="23" ry="23.5" fill="#FCFBFB"/>
<path d="M35.6753 18.7655C35.6597 17.6931 35.4613 16.6291 35.0817 15.6261C34.4173 13.9134 33.0643 12.5591 31.3516 11.8961C30.3613 11.5235 29.3144 11.3237 28.2548 11.3011C26.8919 11.2401 26.4598 11.2231 23.0003 11.2231C19.5408 11.2231 19.0974 11.2231 17.7445 11.3011C16.6863 11.3237 15.6393 11.5235 14.6491 11.8961C12.9363 12.5591 11.582 13.9134 10.919 15.6261C10.5464 16.6164 10.3453 17.6633 10.3254 18.7216C10.2645 20.0858 10.2461 20.5179 10.2461 23.9774C10.2461 27.4369 10.2461 27.8789 10.3254 29.2332C10.3467 30.2929 10.5464 31.3384 10.919 32.3315C11.5834 34.0428 12.9363 35.3971 14.6505 36.0601C15.6365 36.4455 16.6834 36.6636 17.7459 36.6976C19.1102 36.7586 19.5423 36.777 23.0018 36.777C26.4613 36.777 26.9047 36.777 28.2576 36.6976C29.3158 36.6764 30.3628 36.4766 31.3544 36.1041C33.0672 35.4396 34.4201 34.0853 35.0845 32.374C35.4571 31.3823 35.6568 30.3368 35.6781 29.2757C35.739 27.9129 35.7574 27.4808 35.7574 24.0199C35.7546 20.5604 35.7546 20.1212 35.6753 18.7655ZM22.9918 30.5196C19.3737 30.5196 16.4426 27.5885 16.4426 23.9703C16.4426 20.3521 19.3737 17.4211 22.9918 17.4211C26.6072 17.4211 29.5411 20.3521 29.5411 23.9703C29.5411 27.5885 26.6072 30.5196 22.9918 30.5196ZM29.8018 18.706C28.956 18.706 28.2746 18.0231 28.2746 17.1788C28.2746 16.3345 28.956 15.6516 29.8018 15.6516C30.6447 15.6516 31.3275 16.3345 31.3275 17.1788C31.3275 18.0231 30.6447 18.706 29.8018 18.706Z" fill="#13114F"/>
<path d="M22.9916 28.2246C25.3411 28.2246 27.2458 26.3199 27.2458 23.9703C27.2458 21.6208 25.3411 19.7161 22.9916 19.7161C20.642 19.7161 18.7373 21.6208 18.7373 23.9703C18.7373 26.3199 20.642 28.2246 22.9916 28.2246Z" fill="#13114F"/>
</svg>
