<svg width="46" height="47" viewBox="0 0 46 47" fill="none" xmlns="http://www.w3.org/2000/svg">
<ellipse cx="23" cy="23.5" rx="23" ry="23.5" fill="#6B98EF"/>
<path d="M35.6749 18.7655C35.6593 17.6931 35.461 16.6291 35.0813 15.6261C34.4169 13.9134 33.064 12.5591 31.3513 11.8961C30.361 11.5235 29.3141 11.3237 28.2544 11.3011C26.8916 11.2401 26.4595 11.2231 23 11.2231C19.5405 11.2231 19.0971 11.2231 17.7442 11.3011C16.6859 11.3237 15.639 11.5235 14.6488 11.8961C12.936 12.5591 11.5817 13.9134 10.9187 15.6261C10.5461 16.6164 10.3449 17.6633 10.3251 18.7216C10.2642 20.0858 10.2458 20.5179 10.2458 23.9774C10.2458 27.4369 10.2458 27.8789 10.3251 29.2332C10.3463 30.2929 10.5461 31.3384 10.9187 32.3315C11.5831 34.0428 12.936 35.3971 14.6502 36.0601C15.6362 36.4455 16.6831 36.6636 17.7456 36.6976C19.1098 36.7586 19.5419 36.777 23.0014 36.777C26.4609 36.777 26.9043 36.777 28.2573 36.6976C29.3155 36.6764 30.3624 36.4766 31.3541 36.1041C33.0668 35.4396 34.4198 34.0853 35.0842 32.374C35.4568 31.3823 35.6565 30.3368 35.6778 29.2757C35.7387 27.9129 35.7571 27.4808 35.7571 24.0199C35.7543 20.5604 35.7543 20.1212 35.6749 18.7655ZM22.9915 30.5196C19.3733 30.5196 16.4423 27.5885 16.4423 23.9703C16.4423 20.3521 19.3733 17.4211 22.9915 17.4211C26.6068 17.4211 29.5408 20.3521 29.5408 23.9703C29.5408 27.5885 26.6068 30.5196 22.9915 30.5196ZM29.8014 18.706C28.9557 18.706 28.2743 18.0231 28.2743 17.1788C28.2743 16.3345 28.9557 15.6516 29.8014 15.6516C30.6443 15.6516 31.3272 16.3345 31.3272 17.1788C31.3272 18.0231 30.6443 18.706 29.8014 18.706Z" fill="#FCFBFB"/>
<path d="M22.9915 28.2246C25.3411 28.2246 27.2458 26.3199 27.2458 23.9703C27.2458 21.6208 25.3411 19.7161 22.9915 19.7161C20.642 19.7161 18.7373 21.6208 18.7373 23.9703C18.7373 26.3199 20.642 28.2246 22.9915 28.2246Z" fill="#FCFBFB"/>
</svg>
