<svg width="46" height="46" viewBox="0 0 46 46" fill="none" xmlns="http://www.w3.org/2000/svg">
<circle cx="23" cy="23" r="23" fill="#6B98EF"/>
<path d="M34.3333 11.25H11.6667C10.8832 11.25 10.25 11.8847 10.25 12.6667V35.3333C10.25 36.1153 10.8832 36.75 11.6667 36.75H34.3333C35.1167 36.75 35.75 36.1153 35.75 35.3333V12.6667C35.75 11.8847 35.1167 11.25 34.3333 11.25ZM17.8136 32.9774H14.0282V20.8082H17.8136V32.9774ZM15.9209 19.1465C14.7082 19.1465 13.7279 18.1633 13.7279 16.9535C13.7279 15.7437 14.7068 14.7605 15.9209 14.7605C17.1307 14.7605 18.1139 15.7422 18.1139 16.9535C18.1139 18.1648 17.1307 19.1465 15.9209 19.1465ZM31.9788 32.9774H28.1977V27.06C28.1977 25.649 28.1722 23.8343 26.2314 23.8343C24.2622 23.8343 23.9633 25.3727 23.9633 26.9608V32.9788H20.1851V20.8097H23.8117V22.4728H23.8642C24.3671 21.5166 25.6024 20.5079 27.4398 20.5079C31.2705 20.5079 31.9774 23.0267 31.9774 26.3049V32.9774H31.9788Z" fill="#FCFBFB"/>
</svg>
