<svg width="47" height="46" viewBox="0 0 47 46" fill="none" xmlns="http://www.w3.org/2000/svg">
<ellipse cx="23.5" cy="23" rx="23.5" ry="23" fill="#FCFBFB"/>
<path d="M36.4495 18.3291C36.469 18.577 36.469 18.8235 36.469 19.07C36.469 26.6138 30.3895 35.3064 19.279 35.3064C15.856 35.3064 12.676 34.37 10 32.7437C10.486 32.7961 10.954 32.8145 11.4595 32.8145C14.284 32.8145 16.8835 31.9135 18.961 30.3764C16.3045 30.324 14.0785 28.6807 13.3105 26.4197C13.684 26.4721 14.059 26.5075 14.452 26.5075C14.9935 26.5075 15.538 26.4367 16.0435 26.3134C13.273 25.7836 11.1985 23.4872 11.1985 20.7134V20.6425C12.004 21.0661 12.9385 21.331 13.9285 21.3664C12.301 20.3436 11.2345 18.594 11.2345 16.6149C11.2345 15.5553 11.533 14.5834 12.0565 13.7363C15.031 17.1972 19.5025 19.4596 24.5155 19.7075C24.4225 19.2825 24.3655 18.8419 24.3655 18.3999C24.3655 15.2549 27.0595 12.6936 30.4075 12.6936C32.1475 12.6936 33.718 13.3821 34.822 14.4956C36.187 14.2477 37.495 13.7703 38.656 13.1172C38.2075 14.4418 37.252 15.5553 35.9995 16.2622C37.216 16.1375 38.395 15.8202 39.478 15.3782C38.656 16.5087 37.6285 17.5159 36.4495 18.3291Z" fill="#13114F"/>
</svg>
