<svg width="47" height="47" viewBox="0 0 47 47" fill="none" xmlns="http://www.w3.org/2000/svg">
<circle cx="23.5" cy="23.5" r="23.5" fill="#6B98EF"/>
<path d="M36.5901 17.2042C36.2643 15.9887 35.308 15.0296 34.0939 14.7023C31.8754 14.0932 23 14.0833 23 14.0833C23 14.0833 14.126 14.0733 11.9061 14.6556C10.7161 14.98 9.73293 15.9603 9.40426 17.1744C8.81918 19.3929 8.81351 23.9943 8.81351 23.9943C8.81351 23.9943 8.80784 28.6183 9.38868 30.8141C9.71451 32.0282 10.6708 32.9873 11.8863 33.3145C14.1274 33.9237 22.9788 33.9336 22.9788 33.9336C22.9788 33.9336 31.8542 33.9435 34.0727 33.3627C35.2853 33.0368 36.2458 32.0792 36.5759 30.8651C37.1624 28.648 37.1667 24.0481 37.1667 24.0481C37.1667 24.0481 37.195 19.4227 36.5901 17.2042ZM20.161 28.257L20.1681 19.757L27.5447 24.0141L20.161 28.257Z" fill="#FCFBFB"/>
</svg>
